<?xml version="1.0" encoding="utf-8"?>
<!-- Generator: Adobe Illustrator 18.0.0, SVG Export Plug-In . SVG Version: 6.00 Build 0)  -->
<!DOCTYPE svg PUBLIC "-//W3C//DTD SVG 1.1//EN" "http://www.w3.org/Graphics/SVG/1.1/DTD/svg11.dtd">
<svg version="1.1" id="Capa_1" xmlns="http://www.w3.org/2000/svg" xmlns:xlink="http://www.w3.org/1999/xlink" x="0px" y="0px"
	 viewBox="0 0 472.9 156.6" enable-background="new 0 0 472.9 156.6" xml:space="preserve">
<path fill="#333333" d="M472.6,16c-0.2-0.6-2.3-1.3-4.5-1.6c-3.8-0.4-8.4-1.5-11.1-2.4c-6.4-2-58.9-11.5-73.8-11.9
	c-36.2-1-55.2,2.3-66.6,4.2c-8.7,1.4-31.6,7.3-44.3,15.9c-2.5,1.7-4.2,3.5-5.4,5.2c-18.1-7-42.4-7-60.7,0.2
	c-1.2-1.7-2.9-3.6-5.5-5.4C188,11.6,165.1,5.7,156.4,4.3c-11.5-1.8-30.5-5.2-66.6-4.2C74.9,0.6,22.3,10,16,12.1
	c-2.7,0.9-7.3,2-11.1,2.4c-2.2,0.2-4.3,0.9-4.5,1.6c-0.8,2-0.1,17.8,0.4,20.2c0.4,2-0.2,2.1,1.9,2.6c3.2,0.8,4.3,1.3,8.2,3.9
	c2.1,1.4,8.6,9,13.2,14.5c0.7,0.8,0.4,2.5,1,2.8c0.2,0.1,2.1,0.3,4,0.4c-0.1,3-0.1,6.2,0.2,9.7c2.1,25.7,11.7,52.5,25.6,66.8
	c11.7,12,34,19.8,60,19.8c22.4,0,42-3.8,54.9-16.4c17.3-17,26.7-36.2,31.5-67.4c1.2-8.1,1.2-15.6-0.4-22.4c-0.1-0.2-0.1-0.5-0.2-0.7
	c4.3-0.4,6.5-3.2,6.8-4c0.3-0.7,1.1-4.2,1.4-8.1c17-5.9,38.4-5.9,55.2-0.2c0.2,4,1.1,7.6,1.4,8.3c0.3,0.8,2.5,3.5,6.8,4
	c-0.1,0.2-0.1,0.5-0.2,0.7c-1.5,6.8-1.6,14.3-0.4,22.4c4.8,31.2,14.1,50.4,31.5,67.4c12.9,12.6,32.5,16.5,54.9,16.4
	c26-0.1,48.3-7.8,60-19.8c14-14.4,23.6-41.1,25.6-66.8c0.3-3.5,0.3-6.7,0.2-9.7c2-0.1,3.8-0.3,4-0.4c0.7-0.3,0.3-2,1-2.8
	c4.6-5.5,11.1-13.1,13.2-14.5c3.9-2.6,5-3.1,8.2-3.9c2.1-0.5,1.5-0.6,1.9-2.6C472.7,33.8,473.3,18,472.6,16z M198.5,72.9
	c-4.6,30.1-13.6,48.6-30.3,65c-12.4,12.2-31.3,15.9-52.9,15.9c-25-0.1-46.6-7.6-57.8-19.1C44,120.7,34.8,94.9,32.8,70.1
	c-0.3-3.5-0.3-6.6-0.2-9.6c0.3,0,0.5,0,0.8,0c0.5,0,1-0.4,1-0.9C36.1,38.5,45.9,30,49.3,26.8c14.3-13.4,40.5-15.2,64-15.1
	c24.5,0.1,43.5,3.3,61.8,12.9c11.9,6.2,17,12.2,19.7,23.2c0.2,0.8,1.1,1.7,1.9,1.9c0.3,0.1,0.6,0.1,0.9,0.1c0.1,0.5,0.3,1,0.4,1.6
	C199.6,57.9,199.7,65.1,198.5,72.9z M440.1,70.1c-2,24.8-11.2,50.6-24.7,64.4c-11.3,11.6-32.8,19.1-57.8,19.1
	c-21.6,0-40.4-3.7-52.9-15.9c-16.7-16.4-25.7-34.9-30.3-65c-1.2-7.8-1.1-15,0.4-21.6c0.1-0.5,0.3-1,0.4-1.6c0.3,0,0.6-0.1,0.9-0.1
	c0.9-0.2,1.7-1,1.9-1.9c2.7-11,7.9-17,19.7-23.2c18.4-9.6,37.3-12.8,61.8-12.9c23.5-0.1,49.7,1.7,64,15.1
	c3.4,3.2,13.2,11.7,14.9,32.8c0,0.5,0.5,1,1,0.9c0.2,0,0.5,0,0.8,0C440.4,63.5,440.4,66.6,440.1,70.1z"/>
<g opacity="0.5">
	<path fill="#F2F2F2" d="M197.8,49.7c-0.3,0-0.6-0.1-0.9-0.1c-0.9-0.2-1.7-1-1.9-1.9c-2.7-11-7.9-17-19.7-23.2
		c-18.1-9.5-36.8-12.6-60.7-12.9L161.7,143c2.3-1.5,4.5-3.2,6.4-5.2c16.7-16.4,25.7-34.9,30.3-65c1.2-7.8,1.1-15-0.4-21.6
		C198,50.7,197.9,50.2,197.8,49.7z"/>
	<path fill="#F2F2F2" d="M34.5,59.6c0,0.5-0.5,1-1,0.9c-0.2,0-0.5,0-0.8,0c-0.2,3-0.1,6.2,0.2,9.6c2,24.8,11.2,50.6,24.7,64.4
		c9.2,9.4,25.2,16.2,44.4,18.4L44.2,32.1C40.2,37.2,35.5,45.6,34.5,59.6z"/>
	<path fill="#F2F2F2" d="M122.2,153.6c7.3-0.3,14.2-1.1,20.5-2.6L86.8,36.6L122.2,153.6z"/>
	<path fill="#F2F2F2" d="M437.4,88.1l-21-66.5c-10.3-6-24-8.5-38-9.4c-0.4,0-0.9-0.1-1.3-0.1c-5.9-0.3-11.8-0.4-17.5-0.4
		c-1.2,0-2.3,0-3.5,0c-1.4,0-2.8,0.1-4.2,0.1c-0.2,0-0.5,0-0.7,0c-20.5,0.8-37.2,4.2-53.4,12.7c-11.9,6.2-17,12.2-19.7,23.2
		c-0.2,0.8-1.1,1.7-1.9,1.9c-0.3,0.1-0.6,0.1-0.9,0.1c-0.1,0.5-0.3,1-0.4,1.6c-1.5,6.6-1.6,13.8-0.4,21.6
		c4.6,30.1,13.6,48.6,30.3,65c12.4,12.2,31.3,15.9,52.9,15.9c4.9,0,9.7-0.3,14.2-0.9c7.9-1,15.2-2.7,21.7-5l-30-109.1l44.1,102.2
		c2-1.3,3.9-2.7,5.6-4.2l-33.3-119l49.1,96C432.6,105.8,435.5,97.1,437.4,88.1z"/>
</g>
<g opacity="0.8">
	<path fill="#FFFFFF" d="M113.3,11.6c-11-0.1-22.7,0.3-33.4,2.1c-1.3,0.2-2.6,0.5-3.9,0.7c-10.5,2.2-19.9,5.9-26.7,12.3
		c-1.2,1.1-3.1,2.8-5.1,5.4l57.7,120.8c4.3,0.5,8.8,0.8,13.4,0.8c2.3,0,4.6,0,6.8-0.1l-35.3-117L142.7,151c7.1-1.7,13.5-4.2,19-7.9
		L114.5,11.7C114.1,11.7,113.7,11.6,113.3,11.6z"/>
	<path fill="#FFFFFF" d="M440.3,60.5c-0.3,0-0.5,0-0.8,0c-0.5,0-1-0.4-1-0.9C436.8,38.5,427,30,423.6,26.8c-2.1-2-4.5-3.7-7.2-5.3
		l21,66.5c1.3-5.9,2.2-12,2.7-18C440.4,66.6,440.4,63.5,440.3,60.5z"/>
	<path fill="#FFFFFF" d="M413.2,136.6c0.8-0.7,1.5-1.4,2.2-2.1c5.3-5.4,9.9-12.6,13.6-20.9l-49.1-96L413.2,136.6z"/>
	<path fill="#FFFFFF" d="M393.5,147.8c5.3-1.9,10.1-4.3,14.2-6.9L363.5,38.7L393.5,147.8z"/>
</g>
</svg>
