<?xml version="1.0" encoding="utf-8"?>
<!-- Generator: Adobe Illustrator 18.0.0, SVG Export Plug-In . SVG Version: 6.00 Build 0)  -->
<!DOCTYPE svg PUBLIC "-//W3C//DTD SVG 1.1//EN" "http://www.w3.org/Graphics/SVG/1.1/DTD/svg11.dtd">
<svg version="1.1" id="Capa_1" xmlns="http://www.w3.org/2000/svg" xmlns:xlink="http://www.w3.org/1999/xlink" x="0px" y="0px"
	 viewBox="0 0 1000 1000" enable-background="new 0 0 1000 1000" xml:space="preserve">
<path d="M682.9,982.1C621.3,969.7,545.8,852,497,693.8c-38.7-125.5-60.9-245.5-63.7-264c-3.5-22.8-6.4-52.5-8.8-85.1
	c-3.7,22.9-7.8,45.8-12.3,68.3c-14.5,73.4-44.6,197.6-79.3,309.8c-18.6,60.3-36.2,109.6-52.3,146.7c-19.5,44.8-36.4,70.7-51.7,79
	c-8.3,4.5-15.1,3.5-19.3,1.8c-28.3-11.1-55.6-42.5-83.4-96c-23-44.3-47.2-105.9-74.1-188c-20.3-62-35.1-169-44-318.3
	C1.5,237.1-1.5,147.1,0.8,142.2c1.7-3.6,14.1-3.6,16-0.1c2.9,5.4,7.7,374.3,55.1,519.3c26.6,81.3,53.9,142.1,76.6,185.8
	c25.6,49.2,42.8,71,67,80.5c0.6,0.3,2.4,0.9,5.8-1c10.7-5.9,41.6-30.7,96.4-208.5C352.2,606.5,382.1,483,396.6,410
	c9.5-47.9,17.4-98.1,23.4-146.3c-1.3-30.1-1.2-174.6-0.2-205.1c0.5-15.9,1.3-28.5,2.3-37.3c1.3-11.3,1.6-19.5,8.8-21.1
	c5.8-1.3,8.9,2.4,11.5,11.1c11.3,37.6,8,139.3-6.3,253.3c2.6,60.6,6.9,122.9,13,162.8c2.7,18.3,24.7,137.1,63.1,261.7
	C559.1,840.7,682.9,982.1,682.9,982.1z M433.1,73.5c-0.3,11.8-0.4,25.1-0.4,39.9C433.2,99,433.3,85.6,433.1,73.5z"/>
<path stroke="#000000" stroke-width="14" stroke-miterlimit="10" d="M113.2,945.6"/>
<path d="M122,977.1c-0.3,0.5-1.6,0.6-1.7,0.6c-3.6-0.2-12.9-2-14.6-5.6c-1.8-3.7,14.6-41.6,120.2-68.8c46-11.7,159.7-55.5,293.5-119
	c126.3-59.9,236.3-117.7,273.7-143.7c6.7-4.6,68.7-44.4,75.7-49.1c79.8-53.2,131.2-100.3,131.2-100.3
	c-47.5,65.5-100.9,95.4-177.3,148.3c-7,4.8-13.8,9.5-20.5,14.2c-83.3,57.9-466.9,245-570.3,271.3C135,950,127.5,972.7,122,977.1z"/>
<image overflow="visible" width="3264" height="1952" xlink:href="E:\DCIM\100MEDIA\IMAG0014.jpg"  transform="matrix(1 0 0 1 -910 -521)">
</image>
</svg>
